# Tiled2Unity generated file. Do not modify by hand.
# Wavefront file for 'kitchen_mesh_0006.obj'

# Vertices (Count = 104)
v -144 -32 0
v -160 -32 0
v -160 -16 0
v -144 -16 0
v -128 -32 0
v -144 -32 0
v -144 -16 0
v -128 -16 0
v -112 -32 0
v -128 -32 0
v -128 -16 0
v -112 -16 0
v -96 -32 0
v -112 -32 0
v -112 -16 0
v -96 -16 0
v -80 -32 0
v -96 -32 0
v -96 -16 0
v -80 -16 0
v -64 -32 0
v -80 -32 0
v -80 -16 0
v -64 -16 0
v -48 -32 0
v -64 -32 0
v -64 -16 0
v -48 -16 0
v -32 -32 0
v -48 -32 0
v -48 -16 0
v -32 -16 0
v -144 -48 0
v -160 -48 0
v -160 -32 0
v -144 -32 0
v -32 -48 0
v -48 -48 0
v -48 -32 0
v -32 -32 0
v -144 -64 0
v -160 -64 0
v -160 -48 0
v -144 -48 0
v -32 -64 0
v -48 -64 0
v -48 -48 0
v -32 -48 0
v -144 -80 0
v -160 -80 0
v -160 -64 0
v -144 -64 0
v -128 -80 0
v -144 -80 0
v -144 -64 0
v -128 -64 0
v -112 -80 0
v -128 -80 0
v -128 -64 0
v -112 -64 0
v -96 -80 0
v -112 -80 0
v -112 -64 0
v -96 -64 0
v -80 -80 0
v -96 -80 0
v -96 -64 0
v -80 -64 0
v -64 -80 0
v -80 -80 0
v -80 -64 0
v -64 -64 0
v -48 -80 0
v -64 -80 0
v -64 -64 0
v -48 -64 0
v -32 -80 0
v -48 -80 0
v -48 -64 0
v -32 -64 0
v -384 -128 0
v -400 -128 0
v -400 -112 0
v -384 -112 0
v -432 -208 0
v -448 -208 0
v -448 -192 0
v -432 -192 0
v -432 -224 0
v -448 -224 0
v -448 -208 0
v -432 -208 0
v -432 -240 0
v -448 -240 0
v -448 -224 0
v -432 -224 0
v -432 -256 0
v -448 -256 0
v -448 -240 0
v -432 -240 0
v -432 -272 0
v -448 -272 0
v -448 -256 0
v -432 -256 0

# Texture cooridinates (Count = 40)
vt 0.6496815 0.3578947
vt 0.6751592 0.3578947
vt 0.6751592 0.391579
vt 0.6496815 0.391579
vt 0.5684713 0.3578947
vt 0.593949 0.3578947
vt 0.593949 0.391579
vt 0.5684713 0.391579
vt 0.5414013 0.3578947
vt 0.566879 0.3578947
vt 0.566879 0.391579
vt 0.5414013 0.391579
vt 0.6496815 0.3221053
vt 0.6751592 0.3221053
vt 0.6751592 0.3557895
vt 0.6496815 0.3557895
vt 0.5414013 0.3221053
vt 0.566879 0.3221053
vt 0.566879 0.3557895
vt 0.5414013 0.3557895
vt 0.6496815 0.2863158
vt 0.6751592 0.2863158
vt 0.6751592 0.32
vt 0.6496815 0.32
vt 0.5684713 0.2863158
vt 0.593949 0.2863158
vt 0.593949 0.32
vt 0.5684713 0.32
vt 0.5414013 0.2863158
vt 0.566879 0.2863158
vt 0.566879 0.32
vt 0.5414013 0.32
vt 0.9203821 0.8589474
vt 0.9458598 0.8589474
vt 0.9458598 0.8926316
vt 0.9203821 0.8926316
vt 0.9745223 0.8947368
vt 1 0.8947368
vt 1 0.928421
vt 0.9745223 0.928421

# Normal
vn 0 0 -1

# Mesh description
g kitchen_mesh_0006

# Faces
f 1/1/1 2/2/1 3/3/1 4/4/1
f 5/5/1 6/6/1 7/7/1 8/8/1
f 9/5/1 10/6/1 11/7/1 12/8/1
f 13/5/1 14/6/1 15/7/1 16/8/1
f 17/5/1 18/6/1 19/7/1 20/8/1
f 21/5/1 22/6/1 23/7/1 24/8/1
f 25/5/1 26/6/1 27/7/1 28/8/1
f 29/9/1 30/10/1 31/11/1 32/12/1
f 33/13/1 34/14/1 35/15/1 36/16/1
f 37/17/1 38/18/1 39/19/1 40/20/1
f 41/13/1 42/14/1 43/15/1 44/16/1
f 45/17/1 46/18/1 47/19/1 48/20/1
f 49/21/1 50/22/1 51/23/1 52/24/1
f 53/25/1 54/26/1 55/27/1 56/28/1
f 57/25/1 58/26/1 59/27/1 60/28/1
f 61/25/1 62/26/1 63/27/1 64/28/1
f 65/25/1 66/26/1 67/27/1 68/28/1
f 69/25/1 70/26/1 71/27/1 72/28/1
f 73/25/1 74/26/1 75/27/1 76/28/1
f 77/29/1 78/30/1 79/31/1 80/32/1
f 81/33/1 82/34/1 83/35/1 84/36/1
f 85/37/1 86/38/1 87/39/1 88/40/1
f 89/37/1 90/38/1 91/39/1 92/40/1
f 93/37/1 94/38/1 95/39/1 96/40/1
f 97/37/1 98/38/1 99/39/1 100/40/1
f 101/37/1 102/38/1 103/39/1 104/40/1

