# Tiled2Unity generated file. Do not modify by hand.
# Wavefront file for 'kitchen_mesh_0009.obj'

# Vertices (Count = 24)
v -256 -48 0
v -272 -48 0
v -272 -32 0
v -256 -32 0
v -240 -48 0
v -256 -48 0
v -256 -32 0
v -240 -32 0
v -224 -48 0
v -240 -48 0
v -240 -32 0
v -224 -32 0
v -208 -48 0
v -224 -48 0
v -224 -32 0
v -208 -32 0
v -192 -48 0
v -208 -48 0
v -208 -32 0
v -192 -32 0
v -288 -304 0
v -304 -304 0
v -304 -288 0
v -288 -288 0

# Texture cooridinates (Count = 16)
vt 0.9307851 0.904943
vt 0.947314 0.904943
vt 0.947314 0.9353612
vt 0.9307851 0.9353612
vt 0.9132231 0.904943
vt 0.9297521 0.904943
vt 0.9297521 0.9353612
vt 0.9132231 0.9353612
vt 0.8956612 0.904943
vt 0.9121901 0.904943
vt 0.9121901 0.9353612
vt 0.8956612 0.9353612
vt 0.6322314 0.8726236
vt 0.6487603 0.8726236
vt 0.6487603 0.9030418
vt 0.6322314 0.9030418

# Normal
vn 0 0 -1

# Mesh description
g kitchen_mesh_0009

# Faces
f 1/1/1 2/2/1 3/3/1 4/4/1
f 5/5/1 6/6/1 7/7/1 8/8/1
f 9/5/1 10/6/1 11/7/1 12/8/1
f 13/5/1 14/6/1 15/7/1 16/8/1
f 17/9/1 18/10/1 19/11/1 20/12/1
f 21/13/1 22/14/1 23/15/1 24/16/1

