# Tiled2Unity generated file. Do not modify by hand.
# Wavefront file for 'kitchen_mesh_0007.obj'

# Vertices (Count = 268)
v -224 -48 0
v -240 -48 0
v -240 -32 0
v -224 -32 0
v -160 -96 0
v -176 -96 0
v -176 -80 0
v -160 -80 0
v -144 -96 0
v -160 -96 0
v -160 -80 0
v -144 -80 0
v -128 -96 0
v -144 -96 0
v -144 -80 0
v -128 -80 0
v -112 -96 0
v -128 -96 0
v -128 -80 0
v -112 -80 0
v -96 -96 0
v -112 -96 0
v -112 -80 0
v -96 -80 0
v -80 -96 0
v -96 -96 0
v -96 -80 0
v -80 -80 0
v -64 -96 0
v -80 -96 0
v -80 -80 0
v -64 -80 0
v -48 -96 0
v -64 -96 0
v -64 -80 0
v -48 -80 0
v -176 -112 0
v -192 -112 0
v -192 -96 0
v -176 -96 0
v -32 -112 0
v -48 -112 0
v -48 -96 0
v -32 -96 0
v -432 -128 0
v -448 -128 0
v -448 -112 0
v -432 -112 0
v -416 -128 0
v -432 -128 0
v -432 -112 0
v -416 -112 0
v -368 -128 0
v -384 -128 0
v -384 -112 0
v -368 -112 0
v -352 -128 0
v -368 -128 0
v -368 -112 0
v -352 -112 0
v -336 -128 0
v -352 -128 0
v -352 -112 0
v -336 -112 0
v -320 -128 0
v -336 -128 0
v -336 -112 0
v -320 -112 0
v -304 -128 0
v -320 -128 0
v -320 -112 0
v -304 -112 0
v -288 -128 0
v -304 -128 0
v -304 -112 0
v -288 -112 0
v -272 -128 0
v -288 -128 0
v -288 -112 0
v -272 -112 0
v -160 -128 0
v -176 -128 0
v -176 -112 0
v -160 -112 0
v -144 -128 0
v -160 -128 0
v -160 -112 0
v -144 -112 0
v -128 -128 0
v -144 -128 0
v -144 -112 0
v -128 -112 0
v -112 -128 0
v -128 -128 0
v -128 -112 0
v -112 -112 0
v -96 -128 0
v -112 -128 0
v -112 -112 0
v -96 -112 0
v -80 -128 0
v -96 -128 0
v -96 -112 0
v -80 -112 0
v -64 -128 0
v -80 -128 0
v -80 -112 0
v -64 -112 0
v -48 -128 0
v -64 -128 0
v -64 -112 0
v -48 -112 0
v -160 -160 0
v -176 -160 0
v -176 -144 0
v -160 -144 0
v -144 -160 0
v -160 -160 0
v -160 -144 0
v -144 -144 0
v -128 -160 0
v -144 -160 0
v -144 -144 0
v -128 -144 0
v -112 -160 0
v -128 -160 0
v -128 -144 0
v -112 -144 0
v -96 -160 0
v -112 -160 0
v -112 -144 0
v -96 -144 0
v -80 -160 0
v -96 -160 0
v -96 -144 0
v -80 -144 0
v -64 -160 0
v -80 -160 0
v -80 -144 0
v -64 -144 0
v -48 -160 0
v -64 -160 0
v -64 -144 0
v -48 -144 0
v -176 -176 0
v -192 -176 0
v -192 -160 0
v -176 -160 0
v -144 -176 0
v -160 -176 0
v -160 -160 0
v -144 -160 0
v -32 -176 0
v -48 -176 0
v -48 -160 0
v -32 -160 0
v -160 -192 0
v -176 -192 0
v -176 -176 0
v -160 -176 0
v -144 -192 0
v -160 -192 0
v -160 -176 0
v -144 -176 0
v -128 -192 0
v -144 -192 0
v -144 -176 0
v -128 -176 0
v -112 -192 0
v -128 -192 0
v -128 -176 0
v -112 -176 0
v -96 -192 0
v -112 -192 0
v -112 -176 0
v -96 -176 0
v -80 -192 0
v -96 -192 0
v -96 -176 0
v -80 -176 0
v -64 -192 0
v -80 -192 0
v -80 -176 0
v -64 -176 0
v -48 -192 0
v -64 -192 0
v -64 -176 0
v -48 -176 0
v -160 -240 0
v -176 -240 0
v -176 -224 0
v -160 -224 0
v -144 -240 0
v -160 -240 0
v -160 -224 0
v -144 -224 0
v -128 -240 0
v -144 -240 0
v -144 -224 0
v -128 -224 0
v -112 -240 0
v -128 -240 0
v -128 -224 0
v -112 -224 0
v -96 -240 0
v -112 -240 0
v -112 -224 0
v -96 -224 0
v -80 -240 0
v -96 -240 0
v -96 -224 0
v -80 -224 0
v -64 -240 0
v -80 -240 0
v -80 -224 0
v -64 -224 0
v -48 -240 0
v -64 -240 0
v -64 -224 0
v -48 -224 0
v -176 -256 0
v -192 -256 0
v -192 -240 0
v -176 -240 0
v -144 -256 0
v -160 -256 0
v -160 -240 0
v -144 -240 0
v -48 -256 0
v -64 -256 0
v -64 -240 0
v -48 -240 0
v -32 -256 0
v -48 -256 0
v -48 -240 0
v -32 -240 0
v -160 -272 0
v -176 -272 0
v -176 -256 0
v -160 -256 0
v -144 -272 0
v -160 -272 0
v -160 -256 0
v -144 -256 0
v -128 -272 0
v -144 -272 0
v -144 -256 0
v -128 -256 0
v -112 -272 0
v -128 -272 0
v -128 -256 0
v -112 -256 0
v -96 -272 0
v -112 -272 0
v -112 -256 0
v -96 -256 0
v -80 -272 0
v -96 -272 0
v -96 -256 0
v -80 -256 0
v -64 -272 0
v -80 -272 0
v -80 -256 0
v -64 -256 0
v -48 -272 0
v -64 -272 0
v -64 -256 0
v -48 -256 0

# Texture cooridinates (Count = 60)
vt 0.8956612 0.9695817
vt 0.9121901 0.9695817
vt 0.9121901 1
vt 0.8956612 1
vt 0.3336777 0.8726236
vt 0.3502066 0.8726236
vt 0.3502066 0.9030418
vt 0.3336777 0.9030418
vt 0.3863636 0.8726236
vt 0.4028926 0.8726236
vt 0.4028926 0.9030418
vt 0.3863636 0.9030418
vt 0.3688017 0.8726236
vt 0.3853306 0.8726236
vt 0.3853306 0.9030418
vt 0.3688017 0.9030418
vt 0.9483471 0.6140684
vt 0.9648761 0.6140684
vt 0.9648761 0.6444867
vt 0.9483471 0.6444867
vt 0.9834711 0.5494297
vt 1 0.5494297
vt 1 0.5798479
vt 0.9834711 0.5798479
vt 0.9659091 0.5817491
vt 0.982438 0.5817491
vt 0.982438 0.6121673
vt 0.9659091 0.6121673
vt 0.2985537 0.7756654
vt 0.3150826 0.7756654
vt 0.3150826 0.8060837
vt 0.2985537 0.8060837
vt 0.2809917 0.7756654
vt 0.2975207 0.7756654
vt 0.2975207 0.8060837
vt 0.2809917 0.8060837
vt 0.2634298 0.7756654
vt 0.2799587 0.7756654
vt 0.2799587 0.8060837
vt 0.2634298 0.8060837
vt 0.2283058 0.743346
vt 0.2448347 0.743346
vt 0.2448347 0.7737643
vt 0.2283058 0.7737643
vt 0.2458678 0.743346
vt 0.2623967 0.743346
vt 0.2623967 0.7737643
vt 0.2458678 0.7737643
vt 0.2458678 0.7756654
vt 0.2623967 0.7756654
vt 0.2623967 0.8060837
vt 0.2458678 0.8060837
vt 0.3512397 0.8726236
vt 0.3677686 0.8726236
vt 0.3677686 0.9030418
vt 0.3512397 0.9030418
vt 0.9834711 0.4201521
vt 1 0.4201521
vt 1 0.4505703
vt 0.9834711 0.4505703

# Normal
vn 0 0 -1

# Mesh description
g kitchen_mesh_0007

# Faces
f 1/1/1 2/2/1 3/3/1 4/4/1
f 5/5/1 6/6/1 7/7/1 8/8/1
f 9/5/1 10/6/1 11/7/1 12/8/1
f 13/5/1 14/6/1 15/7/1 16/8/1
f 17/5/1 18/6/1 19/7/1 20/8/1
f 21/5/1 22/6/1 23/7/1 24/8/1
f 25/5/1 26/6/1 27/7/1 28/8/1
f 29/5/1 30/6/1 31/7/1 32/8/1
f 33/5/1 34/6/1 35/7/1 36/8/1
f 37/9/1 38/10/1 39/11/1 40/12/1
f 41/13/1 42/14/1 43/15/1 44/16/1
f 45/17/1 46/18/1 47/19/1 48/20/1
f 49/21/1 50/22/1 51/23/1 52/24/1
f 53/25/1 54/26/1 55/27/1 56/28/1
f 57/29/1 58/30/1 59/31/1 60/32/1
f 61/33/1 62/34/1 63/35/1 64/36/1
f 65/37/1 66/38/1 67/39/1 68/40/1
f 69/41/1 70/42/1 71/43/1 72/44/1
f 73/45/1 74/46/1 75/47/1 76/48/1
f 77/49/1 78/50/1 79/51/1 80/52/1
f 81/53/1 82/54/1 83/55/1 84/56/1
f 85/53/1 86/54/1 87/55/1 88/56/1
f 89/53/1 90/54/1 91/55/1 92/56/1
f 93/53/1 94/54/1 95/55/1 96/56/1
f 97/53/1 98/54/1 99/55/1 100/56/1
f 101/53/1 102/54/1 103/55/1 104/56/1
f 105/53/1 106/54/1 107/55/1 108/56/1
f 109/53/1 110/54/1 111/55/1 112/56/1
f 113/5/1 114/6/1 115/7/1 116/8/1
f 117/5/1 118/6/1 119/7/1 120/8/1
f 121/5/1 122/6/1 123/7/1 124/8/1
f 125/5/1 126/6/1 127/7/1 128/8/1
f 129/5/1 130/6/1 131/7/1 132/8/1
f 133/5/1 134/6/1 135/7/1 136/8/1
f 137/5/1 138/6/1 139/7/1 140/8/1
f 141/5/1 142/6/1 143/7/1 144/8/1
f 145/9/1 146/10/1 147/11/1 148/12/1
f 149/57/1 150/58/1 151/59/1 152/60/1
f 153/13/1 154/14/1 155/15/1 156/16/1
f 157/53/1 158/54/1 159/55/1 160/56/1
f 161/53/1 162/54/1 163/55/1 164/56/1
f 165/53/1 166/54/1 167/55/1 168/56/1
f 169/53/1 170/54/1 171/55/1 172/56/1
f 173/53/1 174/54/1 175/55/1 176/56/1
f 177/53/1 178/54/1 179/55/1 180/56/1
f 181/53/1 182/54/1 183/55/1 184/56/1
f 185/53/1 186/54/1 187/55/1 188/56/1
f 189/5/1 190/6/1 191/7/1 192/8/1
f 193/5/1 194/6/1 195/7/1 196/8/1
f 197/5/1 198/6/1 199/7/1 200/8/1
f 201/5/1 202/6/1 203/7/1 204/8/1
f 205/5/1 206/6/1 207/7/1 208/8/1
f 209/5/1 210/6/1 211/7/1 212/8/1
f 213/5/1 214/6/1 215/7/1 216/8/1
f 217/5/1 218/6/1 219/7/1 220/8/1
f 221/9/1 222/10/1 223/11/1 224/12/1
f 225/57/1 226/58/1 227/59/1 228/60/1
f 229/57/1 230/58/1 231/59/1 232/60/1
f 233/13/1 234/14/1 235/15/1 236/16/1
f 237/53/1 238/54/1 239/55/1 240/56/1
f 241/53/1 242/54/1 243/55/1 244/56/1
f 245/53/1 246/54/1 247/55/1 248/56/1
f 249/53/1 250/54/1 251/55/1 252/56/1
f 253/53/1 254/54/1 255/55/1 256/56/1
f 257/53/1 258/54/1 259/55/1 260/56/1
f 261/53/1 262/54/1 263/55/1 264/56/1
f 265/53/1 266/54/1 267/55/1 268/56/1

