# Tiled2Unity generated file. Do not modify by hand.
# Wavefront file for 'kitchen_mesh_0002.obj'

# Vertices (Count = 132)
v -144 -32 0
v -160 -32 0
v -160 -16 0
v -144 -16 0
v -128 -32 0
v -144 -32 0
v -144 -16 0
v -128 -16 0
v -112 -32 0
v -128 -32 0
v -128 -16 0
v -112 -16 0
v -96 -32 0
v -112 -32 0
v -112 -16 0
v -96 -16 0
v -80 -32 0
v -96 -32 0
v -96 -16 0
v -80 -16 0
v -64 -32 0
v -80 -32 0
v -80 -16 0
v -64 -16 0
v -48 -32 0
v -64 -32 0
v -64 -16 0
v -48 -16 0
v -32 -32 0
v -48 -32 0
v -48 -16 0
v -32 -16 0
v -16 -32 0
v -32 -32 0
v -32 -16 0
v -16 -16 0
v -144 -48 0
v -160 -48 0
v -160 -32 0
v -144 -32 0
v -128 -48 0
v -144 -48 0
v -144 -32 0
v -128 -32 0
v -112 -48 0
v -128 -48 0
v -128 -32 0
v -112 -32 0
v -96 -48 0
v -112 -48 0
v -112 -32 0
v -96 -32 0
v -80 -48 0
v -96 -48 0
v -96 -32 0
v -80 -32 0
v -64 -48 0
v -80 -48 0
v -80 -32 0
v -64 -32 0
v -48 -48 0
v -64 -48 0
v -64 -32 0
v -48 -32 0
v -32 -48 0
v -48 -48 0
v -48 -32 0
v -32 -32 0
v -144 -64 0
v -160 -64 0
v -160 -48 0
v -144 -48 0
v -128 -64 0
v -144 -64 0
v -144 -48 0
v -128 -48 0
v -112 -64 0
v -128 -64 0
v -128 -48 0
v -112 -48 0
v -96 -64 0
v -112 -64 0
v -112 -48 0
v -96 -48 0
v -80 -64 0
v -96 -64 0
v -96 -48 0
v -80 -48 0
v -64 -64 0
v -80 -64 0
v -80 -48 0
v -64 -48 0
v -48 -64 0
v -64 -64 0
v -64 -48 0
v -48 -48 0
v -32 -64 0
v -48 -64 0
v -48 -48 0
v -32 -48 0
v -144 -80 0
v -160 -80 0
v -160 -64 0
v -144 -64 0
v -128 -80 0
v -144 -80 0
v -144 -64 0
v -128 -64 0
v -112 -80 0
v -128 -80 0
v -128 -64 0
v -112 -64 0
v -96 -80 0
v -112 -80 0
v -112 -64 0
v -96 -64 0
v -80 -80 0
v -96 -80 0
v -96 -64 0
v -80 -64 0
v -64 -80 0
v -80 -80 0
v -80 -64 0
v -64 -64 0
v -48 -80 0
v -64 -80 0
v -64 -64 0
v -48 -64 0
v -32 -80 0
v -48 -80 0
v -48 -64 0
v -32 -64 0

# Texture cooridinates (Count = 120)
vt 0.875 0.475
vt 0.9338235 0.475
vt 0.9338235 0.575
vt 0.875 0.575
vt 0.8125 0.475
vt 0.8713235 0.475
vt 0.8713235 0.575
vt 0.8125 0.575
vt 0.75 0.475
vt 0.8088235 0.475
vt 0.8088235 0.575
vt 0.75 0.575
vt 0.6875 0.475
vt 0.7463235 0.475
vt 0.7463235 0.575
vt 0.6875 0.575
vt 0.625 0.475
vt 0.6838235 0.475
vt 0.6838235 0.575
vt 0.625 0.575
vt 0.5625 0.475
vt 0.6213235 0.475
vt 0.6213235 0.575
vt 0.5625 0.575
vt 0.5 0.475
vt 0.5588235 0.475
vt 0.5588235 0.575
vt 0.5 0.575
vt 0.4375 0.475
vt 0.4963235 0.475
vt 0.4963235 0.575
vt 0.4375 0.575
vt 0.5625 0.2625
vt 0.6213235 0.2625
vt 0.6213235 0.3625
vt 0.5625 0.3625
vt 0.875 0.36875
vt 0.9338235 0.36875
vt 0.9338235 0.46875
vt 0.875 0.46875
vt 0.8125 0.36875
vt 0.8713235 0.36875
vt 0.8713235 0.46875
vt 0.8125 0.46875
vt 0.75 0.36875
vt 0.8088235 0.36875
vt 0.8088235 0.46875
vt 0.75 0.46875
vt 0.6875 0.36875
vt 0.7463235 0.36875
vt 0.7463235 0.46875
vt 0.6875 0.46875
vt 0.625 0.36875
vt 0.6838235 0.36875
vt 0.6838235 0.46875
vt 0.625 0.46875
vt 0.4375 0.36875
vt 0.4963235 0.36875
vt 0.4963235 0.46875
vt 0.4375 0.46875
vt 0.875 0.2625
vt 0.9338235 0.2625
vt 0.9338235 0.3625
vt 0.875 0.3625
vt 0.8125 0.2625
vt 0.8713235 0.2625
vt 0.8713235 0.3625
vt 0.8125 0.3625
vt 0.75 0.2625
vt 0.8088235 0.2625
vt 0.8088235 0.3625
vt 0.75 0.3625
vt 0.6875 0.2625
vt 0.7463235 0.2625
vt 0.7463235 0.3625
vt 0.6875 0.3625
vt 0.625 0.2625
vt 0.6838235 0.2625
vt 0.6838235 0.3625
vt 0.625 0.3625
vt 0.5 0.2625
vt 0.5588235 0.2625
vt 0.5588235 0.3625
vt 0.5 0.3625
vt 0.4375 0.2625
vt 0.4963235 0.2625
vt 0.4963235 0.3625
vt 0.4375 0.3625
vt 0.875 0.15625
vt 0.9338235 0.15625
vt 0.9338235 0.25625
vt 0.875 0.25625
vt 0.8125 0.15625
vt 0.8713235 0.15625
vt 0.8713235 0.25625
vt 0.8125 0.25625
vt 0.75 0.15625
vt 0.8088235 0.15625
vt 0.8088235 0.25625
vt 0.75 0.25625
vt 0.6875 0.15625
vt 0.7463235 0.15625
vt 0.7463235 0.25625
vt 0.6875 0.25625
vt 0.625 0.15625
vt 0.6838235 0.15625
vt 0.6838235 0.25625
vt 0.625 0.25625
vt 0.5625 0.15625
vt 0.6213235 0.15625
vt 0.6213235 0.25625
vt 0.5625 0.25625
vt 0.5 0.15625
vt 0.5588235 0.15625
vt 0.5588235 0.25625
vt 0.5 0.25625
vt 0.4375 0.15625
vt 0.4963235 0.15625
vt 0.4963235 0.25625
vt 0.4375 0.25625

# Normal
vn 0 0 -1

# Mesh description
g kitchen_mesh_0002

# Faces
f 1/1/1 2/2/1 3/3/1 4/4/1
f 5/5/1 6/6/1 7/7/1 8/8/1
f 9/9/1 10/10/1 11/11/1 12/12/1
f 13/13/1 14/14/1 15/15/1 16/16/1
f 17/17/1 18/18/1 19/19/1 20/20/1
f 21/21/1 22/22/1 23/23/1 24/24/1
f 25/25/1 26/26/1 27/27/1 28/28/1
f 29/29/1 30/30/1 31/31/1 32/32/1
f 33/33/1 34/34/1 35/35/1 36/36/1
f 37/37/1 38/38/1 39/39/1 40/40/1
f 41/41/1 42/42/1 43/43/1 44/44/1
f 45/45/1 46/46/1 47/47/1 48/48/1
f 49/49/1 50/50/1 51/51/1 52/52/1
f 53/53/1 54/54/1 55/55/1 56/56/1
f 57/33/1 58/34/1 59/35/1 60/36/1
f 61/33/1 62/34/1 63/35/1 64/36/1
f 65/57/1 66/58/1 67/59/1 68/60/1
f 69/61/1 70/62/1 71/63/1 72/64/1
f 73/65/1 74/66/1 75/67/1 76/68/1
f 77/69/1 78/70/1 79/71/1 80/72/1
f 81/73/1 82/74/1 83/75/1 84/76/1
f 85/77/1 86/78/1 87/79/1 88/80/1
f 89/33/1 90/34/1 91/35/1 92/36/1
f 93/81/1 94/82/1 95/83/1 96/84/1
f 97/85/1 98/86/1 99/87/1 100/88/1
f 101/89/1 102/90/1 103/91/1 104/92/1
f 105/93/1 106/94/1 107/95/1 108/96/1
f 109/97/1 110/98/1 111/99/1 112/100/1
f 113/101/1 114/102/1 115/103/1 116/104/1
f 117/105/1 118/106/1 119/107/1 120/108/1
f 121/109/1 122/110/1 123/111/1 124/112/1
f 125/113/1 126/114/1 127/115/1 128/116/1
f 129/117/1 130/118/1 131/119/1 132/120/1

