# Tiled2Unity generated file. Do not modify by hand.
# Wavefront file for '2map_mesh_0001.obj'

# Vertices (Count = 20)
v -64 -16 0
v -80 -16 0
v -80 0 0
v -64 0 0
v -48 -16 0
v -64 -16 0
v -64 0 0
v -48 0 0
v -32 -16 0
v -48 -16 0
v -48 0 0
v -32 0 0
v -16 -16 0
v -32 -16 0
v -32 0 0
v -16 0 0
v 0 -16 0
v -16 -16 0
v -16 0 0
v 0 0 0

# Texture cooridinates (Count = 8)
vt 0.5684713 0.1431579
vt 0.593949 0.1431579
vt 0.593949 0.1768421
vt 0.5684713 0.1768421
vt 0.6226115 0.2505263
vt 0.6480892 0.2505263
vt 0.6480892 0.2842105
vt 0.6226115 0.2842105

# Normal
vn 0 0 -1

# Mesh description
g 2map_mesh_0001

# Faces
f 1/1/1 2/2/1 3/3/1 4/4/1
f 5/1/1 6/2/1 7/3/1 8/4/1
f 9/5/1 10/6/1 11/7/1 12/8/1
f 13/1/1 14/2/1 15/3/1 16/4/1
f 17/1/1 18/2/1 19/3/1 20/4/1

