# Tiled2Unity generated file. Do not modify by hand.
# Wavefront file for 'ergege_mesh_0005.obj'

# Vertices (Count = 16)
v -1584 -224 0
v -1600 -224 0
v -1600 -208 0
v -1584 -208 0
v 0 -224 0
v -16 -224 0
v -16 -208 0
v 0 -208 0
v -1584 -240 0
v -1600 -240 0
v -1600 -224 0
v -1584 -224 0
v 0 -240 0
v -16 -240 0
v -16 -224 0
v 0 -224 0

# Texture cooridinates (Count = 4)
vt 0.5955414 0.2505263
vt 0.6210191 0.2505263
vt 0.6210191 0.2842105
vt 0.5955414 0.2842105

# Normal
vn 0 0 -1

# Mesh description
g ergege_mesh_0005

# Faces
f 1/1/1 2/2/1 3/3/1 4/4/1
f 5/1/1 6/2/1 7/3/1 8/4/1
f 9/1/1 10/2/1 11/3/1 12/4/1
f 13/1/1 14/2/1 15/3/1 16/4/1

